<svg width="640" height="800" viewBox="0 0 640 800" xmlns="http://www.w3.org/2000/svg">
  <defs>
    <linearGradient id="g-browline" x1="0" y1="0" x2="1" y2="1">
      <stop offset="0%" stop-color="#00D9D4"/>
      <stop offset="100%" stop-color="#016B68"/>
    </linearGradient>
  </defs>
  <rect width="640" height="800" fill="url(#g-browline)"/>
  <circle cx="560" cy="120" r="140" fill="#FFFFFF" opacity="0.06"/>
  <circle cx="70" cy="700" r="180" fill="#FFFFFF" opacity="0.06"/>
  <circle cx="120" cy="140" r="60" fill="#FFFFFF" opacity="0.08"/>
  <g fill="none" stroke="#FFFFFF" stroke-linecap="round" stroke-linejoin="round" opacity="0.95">
    <g transform="translate(320,400) scale(14) translate(-12,-12)">
      <path d="M1.8 11.2c1.1-1.4 2.8-2.1 4.2-2.1s3.1.7 4.2 2.1" stroke-width="2.1"/>
      <path d="M1.8 11.2v2.6a4.2 4.2 0 0 0 8.4 0v-2.6" stroke-width="1.2"/>
      <path d="M13.8 11.2c1.1-1.4 2.8-2.1 4.2-2.1s3.1.7 4.2 2.1" stroke-width="2.1"/>
      <path d="M13.8 11.2v2.6a4.2 4.2 0 0 0 8.4 0v-2.6" stroke-width="1.2"/>
      <path d="M10.2 10.8h3.6" stroke-width="1.2"/>
      <path d="M1.8 11c0-2 .8-4 2.4-5.3" stroke-width="1.2"/>
      <path d="M22.2 11c0-2-.8-4-2.4-5.3" stroke-width="1.2"/>
    </g>
  </g>
</svg>
